<?xml version="1.0" encoding="UTF-8"?>
<svg version="1.1" xmlns="http://www.w3.org/2000/svg" width="1835" height="400">
<path d="M0 0 C1.50392713 -0.00611329 1.50392713 -0.00611329 3.03823662 -0.01235008 C8.32423558 -0.03301183 13.61020996 -0.04740966 18.89624023 -0.05688477 C24.33661931 -0.06803686 29.77659928 -0.10259321 35.21683598 -0.14205647 C39.42649594 -0.16818795 43.63605883 -0.17657246 47.84579277 -0.18016624 C49.85240886 -0.18502429 51.85902084 -0.19661588 53.86555672 -0.21520424 C56.66468878 -0.2395698 59.46275712 -0.23863795 62.26196289 -0.23168945 C63.08127792 -0.24449951 63.90059296 -0.25730957 64.74473572 -0.27050781 C72.56793861 -0.19986837 77.36117363 2.85953127 82.86303711 8.43676758 C83.67755844 9.25474319 84.49207977 10.07271881 85.33128357 10.91548157 C86.18875687 11.79157578 87.04623016 12.66766998 87.9296875 13.5703125 C89.31034594 14.9610834 90.69100687 16.35185185 92.07180882 17.74248028 C93.99379072 19.68192393 95.90875185 21.62822884 97.8237915 23.57452393 C101.16766023 26.97062524 104.52130603 30.35705838 107.87684631 33.74162292 C109.65767071 35.53924502 111.43538874 37.33995168 113.2094574 39.14424133 C117.53468235 43.52108611 121.92711025 47.72381688 126.59675598 51.73143005 C130.65681103 55.24123542 134.41009237 59.08216186 138.21484375 62.86328125 C139.49488281 64.11238281 139.49488281 64.11238281 140.80078125 65.38671875 C141.61546875 66.19625 142.43015625 67.00578125 143.26953125 67.83984375 C144.00413574 68.56510254 144.73874023 69.29036133 145.49560547 70.03759766 C153.46843651 79.5513783 149.38720562 98.40015633 148.99316406 109.8843689 C148.5014903 124.36328642 148.21050562 138.83783125 148.05859375 153.32421875 C148.04902964 154.23020813 148.03946552 155.13619751 148.02961159 156.06964111 C147.9521312 163.52688524 147.88250028 170.98419915 147.81378174 178.44152832 C147.69820352 190.93098068 147.56377182 203.4198023 147.37408447 215.90837097 C147.34120774 218.14546882 147.31255254 220.38258615 147.28466797 222.61975098 C147.23465207 226.42296802 147.15015497 230.2248854 147.05859375 234.02734375 C147.04638794 235.10132416 147.03418213 236.17530457 147.02160645 237.28182983 C146.81601518 244.05246339 145.57522007 247.88146587 140.75927734 252.87817383 C140.00638428 253.49921997 140.00638428 253.49921997 139.23828125 254.1328125 C138.67085205 254.60871826 138.10342285 255.08462402 137.51879883 255.57495117 C136.62584106 256.30548706 136.62584106 256.30548706 135.71484375 257.05078125 C134.45483869 258.10440476 133.19572883 259.15909971 131.9375 260.21484375 C131.01541748 260.98489746 131.01541748 260.98489746 130.07470703 261.77050781 C127.71549807 263.76650616 125.43216682 265.83990781 123.15234375 267.92578125 C119.8604217 270.91746285 116.49393068 273.76352548 113.02734375 276.55078125 C107.57464051 280.96082877 102.45998043 285.67596923 97.3359375 290.45703125 C94.40111298 293.19339615 91.4000347 295.84276946 88.359375 298.4609375 C86.79279942 299.83964522 85.25376736 301.24967974 83.7265625 302.671875 C82.32857422 303.97318359 82.32857422 303.97318359 80.90234375 305.30078125 C79.63583984 306.49380859 79.63583984 306.49380859 78.34375 307.7109375 C70.91141924 313.96414687 65.79853189 317.14706311 55.92651367 316.96704102 C54.92700684 316.97273605 53.9275 316.97843109 52.89770508 316.98429871 C49.62117031 316.99533934 46.34666725 316.96344364 43.0703125 316.9296875 C40.78347508 316.92610795 38.49663319 316.92475349 36.20979309 316.92552185 C31.43100135 316.92084218 26.6528886 316.89608248 21.87426758 316.85571289 C15.74621292 316.80459986 9.61889976 316.79327478 3.49065685 316.79554844 C-1.22508329 316.79473344 -5.94066108 316.77829402 -10.65634727 316.75654411 C-12.91660014 316.74699546 -15.17687138 316.74108454 -17.43714333 316.73886299 C-20.58968227 316.73236793 -23.74142967 316.70613172 -26.89379883 316.67407227 C-27.82840439 316.67543182 -28.76300995 316.67679138 -29.72593689 316.67819214 C-36.01559437 316.58452298 -36.01559437 316.58452298 -39.27055359 314.83604431 C-40.66015625 313.23828125 -40.66015625 313.23828125 -40.66015625 311.23828125 C-41.25006348 310.97885742 -41.8399707 310.71943359 -42.44775391 310.45214844 C-44.82148714 309.14976468 -46.2366604 307.80863823 -48.05859375 305.81640625 C-48.69611572 305.12732178 -49.3336377 304.4382373 -49.99047852 303.72827148 C-50.66522217 302.98907471 -51.33996582 302.24987793 -52.03515625 301.48828125 C-57.85135229 295.20246691 -63.75349823 289.04345735 -69.87841797 283.05761719 C-72.71384157 280.26637525 -75.40555994 277.41621625 -78 274.3984375 C-81.99296697 269.77816995 -86.30785192 265.51756034 -90.66015625 261.23828125 C-95.685557 256.2971993 -100.58019222 251.33215207 -105.15234375 245.96484375 C-106.62813769 244.21864959 -106.62813769 244.21864959 -108.29296875 242.69921875 C-111.13706759 239.66009599 -110.78778154 236.22427236 -110.79386902 232.29492188 C-110.798134 231.05298569 -110.80239899 229.8110495 -110.80679321 228.53147888 C-110.80644368 227.15249631 -110.80598213 225.77351376 -110.80541992 224.39453125 C-110.80841182 222.94397393 -110.81181443 221.49341741 -110.81559753 220.04286194 C-110.82444352 216.09820768 -110.82677604 212.15357511 -110.82741332 208.2089119 C-110.82812406 205.74155705 -110.83025893 203.27420772 -110.83291054 200.80685425 C-110.84216941 192.19008026 -110.84624518 183.57332176 -110.84545898 174.95654297 C-110.84485964 166.94109763 -110.85538192 158.92571992 -110.87120265 150.91029167 C-110.88431627 144.01924258 -110.88964121 137.12821547 -110.88900357 130.23715401 C-110.8887495 126.12601472 -110.89155006 122.01493539 -110.90218163 117.90380859 C-110.91192581 114.02963526 -110.91189887 110.15557833 -110.90466499 106.28140068 C-110.90362661 104.86696641 -110.90593717 103.45252465 -110.91202545 102.0381031 C-111.00218822 79.62118209 -111.00218822 79.62118209 -104.21777344 72.70019531 C-103.64188477 72.15588867 -103.06599609 71.61158203 -102.47265625 71.05078125 C-101.28578472 69.85483479 -100.09958051 68.65822569 -98.9140625 67.4609375 C-98.34703613 66.90293457 -97.78000977 66.34493164 -97.19580078 65.77001953 C-95.33989793 63.91883758 -93.61276712 61.98069823 -91.91015625 59.98828125 C-89.36304187 57.0376636 -86.77263388 54.13129339 -84.16015625 51.23828125 C-81.47032194 48.25765404 -78.79705261 45.26582892 -76.16015625 42.23828125 C-72.7664161 38.34176478 -69.30585622 34.5076318 -65.84375 30.671875 C-63.9516694 28.56316979 -62.08109867 26.43908324 -60.22265625 24.30078125 C-56.55347663 20.08293925 -52.77474611 15.96770108 -48.9921875 11.8515625 C-46.64380597 9.29343676 -46.64380597 9.29343676 -44.671875 6.59375 C-41.66594039 3.07417996 -39.04170159 1.45378615 -34.43336487 0.73493958 C-33.20182175 0.67908188 -31.97027863 0.62322418 -30.70141602 0.56567383 C-30.00987458 0.53279927 -29.31833315 0.49992472 -28.60583591 0.46605396 C-19.07724815 0.05804364 -9.53568229 0.03315869 0 0 Z M71.33984375 40.23828125 C71.26991211 41.22747559 71.19998047 42.21666992 71.12792969 43.23583984 C70.86374974 46.90135072 70.57460671 50.56453503 70.27783203 54.22753906 C70.15282995 55.81392914 70.03462832 57.40087019 69.92333984 58.98828125 C69.76228418 61.26871546 69.57695601 63.54605678 69.38671875 65.82421875 C69.34174255 66.5357309 69.29676636 67.24724304 69.25042725 67.98031616 C68.81356068 72.80903897 68.81356068 72.80903897 66.75097656 74.67797852 C63.40312733 75.45595685 60.13398792 75.57776102 56.71484375 75.6171875 C55.53701324 75.64206741 55.53701324 75.64206741 54.33538818 75.66744995 C51.67029723 75.72111359 49.00517212 75.76077034 46.33984375 75.80078125 C44.41827966 75.8372093 42.49673037 75.87442479 40.57519531 75.91235352 C29.00534743 76.13164516 17.43449596 76.27859807 5.86351204 76.42226601 C-0.72774219 76.50434933 -7.3189575 76.58936838 -13.91015625 76.67578125 C-14.6432539 76.68530445 -15.37635155 76.69482765 -16.13166428 76.70463943 C-34.50848592 76.9450693 -52.86662154 77.26829246 -71.22265625 78.23828125 C-72.41248108 78.30110794 -72.41248108 78.30110794 -73.62634277 78.36520386 C-81.98663605 78.81832457 -90.32871802 79.40168871 -98.66015625 80.23828125 C-98.66015625 80.56828125 -98.66015625 80.89828125 -98.66015625 81.23828125 C-97.91513351 81.24858871 -97.17011078 81.25889618 -96.4025116 81.26951599 C-89.38376742 81.36746533 -82.3651082 81.46997617 -75.34650707 81.57762051 C-71.73811565 81.63280125 -68.12971604 81.68621345 -64.52124023 81.7355957 C-61.03932482 81.78331086 -57.55750706 81.83565617 -54.07570839 81.891222 C-52.09985072 81.92154162 -50.12392123 81.947057 -48.147995 81.97251892 C-46.94697647 81.99246414 -45.74595795 82.01240936 -44.50854492 82.03295898 C-43.4493132 82.04850327 -42.39008148 82.06404755 -41.29875183 82.08006287 C-38.66015625 82.23828125 -38.66015625 82.23828125 -35.66015625 83.23828125 C-35.65592431 84.22042351 -35.65169237 85.20256577 -35.64733219 86.21446991 C-35.5441144 110.11795983 -35.43536281 134.0214197 -35.32081699 157.92485809 C-35.26555137 169.48440045 -35.21208038 181.04394589 -35.1628418 192.60351562 C-35.1199183 202.6794445 -35.07361985 212.75535126 -35.0232777 222.8312459 C-34.99674249 228.16576465 -34.97189122 233.5002792 -34.95108223 238.83482361 C-34.93143439 243.8580231 -34.9072667 248.88118076 -34.87966537 253.90434265 C-34.87033795 255.74574012 -34.8626474 257.58714674 -34.85673714 259.42855835 C-34.84840228 261.94814523 -34.83410587 264.46763258 -34.81837463 266.98718262 C-34.81739653 267.71094196 -34.81641842 268.4347013 -34.81541067 269.18039274 C-34.77727328 273.95059637 -34.32327057 278.52405982 -33.66015625 283.23828125 C-33.33015625 283.23828125 -33.00015625 283.23828125 -32.66015625 283.23828125 C-32.6351001 282.45291992 -32.61004395 281.66755859 -32.58422852 280.85839844 C-32.46683538 277.23491697 -32.34477033 273.61160657 -32.22265625 269.98828125 C-32.18333984 268.75335938 -32.14402344 267.5184375 -32.10351562 266.24609375 C-31.33965216 243.91777716 -31.33965216 243.91777716 -29.66015625 242.23828125 C-22.61828759 241.08447357 -15.45187376 241.07383639 -8.33544922 241.03295898 C-7.25134262 241.02305939 -6.16723602 241.01315979 -5.05027771 241.00296021 C-1.50098788 240.97161369 2.0483153 240.94669498 5.59765625 240.921875 C8.07201466 240.90128223 10.54636973 240.88028518 13.02072144 240.85890198 C19.5077442 240.80392108 25.99479745 240.7544068 32.48187256 240.70605469 C39.11164044 240.6556637 45.74136386 240.60006982 52.37109375 240.54492188 C65.36063934 240.43763398 78.35022244 240.33594785 91.33984375 240.23828125 C91.33984375 239.90828125 91.33984375 239.57828125 91.33984375 239.23828125 C90.21964844 239.17769531 89.09945313 239.11710938 87.9453125 239.0546875 C86.47264391 238.97026701 84.99998831 238.88561976 83.52734375 238.80078125 C82.78935547 238.76146484 82.05136719 238.72214844 81.29101562 238.68164062 C78.10913033 238.4944709 75.37821997 238.25107332 72.33984375 237.23828125 C70.89069132 234.3399764 71.20997764 231.81969779 71.20703125 228.58203125 C71.20607452 227.88863647 71.2051178 227.1952417 71.20413208 226.48083496 C71.20344845 224.98771068 71.20531533 223.49458349 71.20947266 222.00146484 C71.21456042 219.85766552 71.20967785 217.71410269 71.203125 215.5703125 C71.19997628 208.28273671 71.29773969 201.00608481 71.5690918 193.72314453 C72.62089529 165.04668062 72.45701052 136.36213758 72.41187048 107.671211 C72.40048195 100.29941606 72.39514187 92.92761994 72.39016736 85.55581832 C72.3798456 70.44996283 72.36237417 55.34412387 72.33984375 40.23828125 C72.00984375 40.23828125 71.67984375 40.23828125 71.33984375 40.23828125 Z " fill="#280C0C" transform="translate(1225.66015625,76.76171875)"/>
<path d="M0 0 C1.24192612 -0.00441856 1.24192612 -0.00441856 2.50894165 -0.00892639 C3.42106415 0.00336502 4.33318665 0.01565643 5.27294922 0.02832031 C6.24767181 0.02969498 7.22239441 0.03106964 8.22665405 0.03248596 C11.51058427 0.04167896 14.79386483 0.07346073 18.07763672 0.10644531 C20.39208509 0.1205161 22.7065386 0.13376126 25.02099609 0.14624023 C30.82657994 0.18235913 36.63188508 0.23591556 42.4372673 0.2950449 C47.80268584 0.34838464 53.1681129 0.38633601 58.53369141 0.41943359 C66.85888215 0.47120007 75.18377887 0.54129242 83.50872803 0.6229248 C86.80416118 0.65489986 90.09955966 0.68079015 93.39508057 0.70178223 C97.3152729 0.72747243 101.23505121 0.76792899 105.15498734 0.81937981 C106.60946353 0.83610755 108.06400753 0.84779603 109.51856613 0.85412788 C111.52079096 0.86372256 113.52288904 0.89342801 115.52490234 0.92407227 C117.21371521 0.94072685 117.21371521 0.94072685 118.93664551 0.9577179 C129.93438717 2.41166813 139.71038223 16.0003229 147.07763672 23.48144531 C152.21652142 28.69902656 157.36558944 33.78324302 162.92480469 38.55126953 C167.80801194 42.89829992 172.30232188 47.67161498 176.88623047 52.32910156 C182.32491632 57.82067577 187.84705334 63.16743405 193.95825195 67.91430664 C197.45167055 71.08721192 198.83047928 73.42069356 199.45137024 78.17684937 C199.51899803 79.6597821 199.57107364 81.1434807 199.61010742 82.62744141 C199.64219205 83.42457235 199.67427668 84.2217033 199.70733356 85.04298973 C199.80229616 87.48054113 199.87819329 89.91819287 199.95263672 92.35644531 C200.00438886 93.72044938 200.05740119 95.08440645 200.11190796 96.44830322 C200.26431579 100.5345134 200.3873177 104.62044201 200.49560547 108.70800781 C200.51617697 109.47084705 200.53674847 110.23368629 200.55794334 111.01964188 C201.11720417 132.31435923 201.2105051 153.61398954 201.24780273 174.91503906 C201.25681653 179.51314923 201.27810178 184.11097212 201.30932617 188.70898438 C201.34769287 194.36024961 201.3665526 200.01125655 201.37108421 205.66264725 C201.37593191 207.78927851 201.38749355 209.9159062 201.40612221 212.0424614 C201.43043591 214.98776917 201.42956928 217.93206434 201.42260742 220.87744141 C201.44182251 222.1691349 201.44182251 222.1691349 201.46142578 223.48692322 C201.40074389 230.53037892 199.36416745 234.60007683 194.68188477 239.9519043 C193.8676001 240.74411377 193.05331543 241.53632324 192.21435547 242.35253906 C191.31136719 243.24134766 190.40837891 244.13015625 189.47802734 245.04589844 C188.54152344 245.95275391 187.60501953 246.85960937 186.64013672 247.79394531 C181.16837503 253.13606247 175.79172543 258.44440848 170.82299805 264.2590332 C166.29747839 269.33392413 161.33652989 274.02018066 156.49560547 278.79296875 C151.29185405 283.93009532 146.15774883 289.07436453 141.42675781 294.6574707 C137.56161027 299.11218447 134.55607871 302.01270386 128.49208069 302.81335449 C127.13720845 302.88691872 125.78153884 302.94664253 124.42553711 302.99511719 C123.6830198 303.02975319 122.94050249 303.06438919 122.17548466 303.10007477 C107.25117342 303.74501524 92.30178584 303.74013184 77.36645508 303.81640625 C73.36570413 303.83884971 69.36586137 303.8809232 65.36547852 303.93945312 C60.48931143 304.01057923 55.61401135 304.04723316 50.73735237 304.05952454 C48.89336539 304.0698869 47.04940287 304.09221972 45.20571709 304.12712097 C29.08132344 304.41722337 29.08132344 304.41722337 23.96069336 300.00292969 C22.91965545 298.82011695 21.91284938 297.60576414 20.95263672 296.35644531 C19.92352555 295.32295591 18.88371824 294.29985881 17.82763672 293.29394531 C16.86734289 292.31670128 15.90901107 291.33752546 14.95263672 290.35644531 C11.04010076 286.38980766 7.05702476 282.61059381 2.81201172 278.99707031 C0.06043267 276.56920645 -2.47382402 273.93894613 -5.04736328 271.32519531 C-6.9862733 269.41658076 -8.98435879 267.6293398 -11.04736328 265.85644531 C-13.83632721 263.45967943 -16.46727113 260.9768514 -19.04736328 258.35644531 C-21.60726463 255.75662348 -24.21515868 253.29376134 -26.98486328 250.91894531 C-31.57888363 246.96700261 -35.79930934 242.67313927 -40.04736328 238.35644531 C-40.95228516 237.65390625 -41.85720703 236.95136719 -42.78955078 236.22753906 C-46.14360372 231.96243714 -45.67091494 228.31903151 -45.48486328 223.04394531 C-45.46456055 222.01664307 -45.44425781 220.98934082 -45.42333984 219.9309082 C-45.33485901 216.40390601 -45.19523021 212.88144633 -45.04736328 209.35644531 C-44.99576564 207.97559816 -44.94450683 206.59473831 -44.89355469 205.21386719 C-44.75611384 201.61605149 -44.5907193 198.02037984 -44.4055481 194.42471313 C-44.33393714 193.01429041 -44.26719444 191.60361134 -44.20553589 190.19271851 C-44.11424046 188.19296619 -43.99527663 186.19453702 -43.87548828 184.19628906 C-43.81264648 183.04507568 -43.74980469 181.8938623 -43.68505859 180.70776367 C-42.30455134 173.45270126 -37.79105131 168.66143776 -32.70581055 163.64257812 C-32.07927582 163.01239273 -31.45274109 162.38220734 -30.80722046 161.73292542 C-28.75004361 159.66769286 -26.68227992 157.61344632 -24.61376953 155.55957031 C-23.17363724 154.11995712 -21.73402414 152.67982438 -20.29490662 151.23919678 C-17.28439015 148.22876981 -14.26879317 145.22355789 -11.24926758 142.22216797 C-7.38274329 138.37836037 -3.52742204 134.52354558 0.32438564 130.6649971 C3.29313065 127.69290853 6.26684546 124.72583427 9.24217415 121.76033783 C10.66563835 120.34071688 12.0877637 118.91975213 13.5085125 117.49741364 C15.49468401 115.5108706 17.48723884 113.53096071 19.48168945 111.55273438 C20.0652269 110.96671951 20.64876434 110.38070465 21.24998474 109.77693176 C26.85577926 104.24360998 30.83273027 101.90691091 38.90478516 101.93994141 C39.69085144 101.93135605 40.47691772 101.92277069 41.2868042 101.91392517 C43.87863167 101.88888832 46.47007439 101.88448629 49.06201172 101.87988281 C50.8717769 101.86556272 52.68153122 101.8498039 54.49127197 101.83267212 C59.25530833 101.79082769 64.01927745 101.7658356 68.78344727 101.74517822 C76.39391404 101.70937587 84.00421373 101.64801336 91.61450958 101.586689 C94.26267985 101.56773588 96.91080587 101.55590476 99.559021 101.54525757 C101.20031827 101.53503374 102.84161472 101.52467487 104.48291016 101.51416016 C105.57273193 101.51259666 105.57273193 101.51259666 106.68457031 101.51100159 C115.57439039 101.67140468 115.57439039 101.67140468 123.95263672 99.35644531 C123.91783203 98.10347656 123.88302734 96.85050781 123.84716797 95.55957031 C123.81902544 93.90854207 123.79172578 92.25749931 123.76513672 90.60644531 C123.74 89.78144531 123.71486328 88.95644531 123.68896484 88.10644531 C123.67446289 86.90761719 123.67446289 86.90761719 123.65966797 85.68457031 C123.63610229 84.58483887 123.63610229 84.58483887 123.61206055 83.46289062 C124.07818577 80.57993116 124.87181067 79.42355278 126.95263672 77.35644531 C130.30810547 76.74707031 130.30810547 76.74707031 134.14013672 76.60644531 C135.41244141 76.54972656 136.68474609 76.49300781 137.99560547 76.43457031 C138.97142578 76.40878906 139.94724609 76.38300781 140.95263672 76.35644531 C140.23572316 76.35221337 139.5188096 76.34798143 138.78017139 76.34362125 C121.33690952 76.2403212 103.89368907 76.13168437 86.45049763 76.01710606 C78.0151081 75.96182562 69.57971435 75.90835215 61.14428711 75.85913086 C53.79206316 75.81622555 46.43986969 75.7699316 39.08769292 75.71956676 C35.19471051 75.69301694 31.30173396 75.66816522 27.4087162 75.64737129 C23.74390001 75.62774273 20.07914157 75.60358059 16.41437721 75.57595444 C14.42937805 75.56216731 12.44434739 75.55317545 10.45932007 75.54432678 C9.27446518 75.53453796 8.08961029 75.52474915 6.86885071 75.5146637 C5.84105153 75.50821115 4.81325235 75.50175859 3.75430775 75.49511051 C1.02890987 75.36022036 -1.41914798 75.09371811 -4.04736328 74.35644531 C-5.27491672 71.90133843 -5.24392915 70.15634822 -5.34448242 67.41040039 C-5.40443138 65.86156914 -5.40443138 65.86156914 -5.46559143 64.28144836 C-5.5041777 63.15764267 -5.54276398 62.03383698 -5.58251953 60.87597656 C-5.62549667 59.71579514 -5.66847382 58.55561371 -5.7127533 57.36027527 C-5.80313807 54.89301393 -5.8912502 52.42566846 -5.97729492 49.95825195 C-6.10774719 46.22943113 -6.24587779 42.50095766 -6.38525391 38.77246094 C-6.59836402 32.9693425 -6.78963466 27.16593986 -6.95928955 21.36138916 C-7.01430679 19.48428329 -7.07248979 17.60726439 -7.13543701 15.73040771 C-7.20415588 13.58878992 -7.25355574 11.44797995 -7.29345703 9.30566406 C-7.31980225 8.19924561 -7.34614746 7.09282715 -7.37329102 5.95288086 C-6.80094968 1.39344256 -4.40836067 -0.02248688 0 0 Z M123.95263672 158.35644531 C123.29263672 163.63644531 122.63263672 168.91644531 121.95263672 174.35644531 C101.76967925 175.55239633 81.56837917 175.67204845 61.35705566 175.88867188 C56.67664473 175.93965092 51.99628457 175.99493072 47.31591797 176.04980469 C38.19486797 176.15613065 29.07377316 176.25783348 19.95263672 176.35644531 C19.62263672 177.01644531 19.29263672 177.67644531 18.95263672 178.35644531 C24.89263672 179.34644531 24.89263672 179.34644531 30.95263672 180.35644531 C30.88044922 182.07863281 30.80826172 183.80082031 30.73388672 185.57519531 C30.21555071 198.66525095 29.83177598 211.7491616 29.77539062 224.84985352 C29.76856555 226.26865671 29.75832249 227.68744765 29.74462891 229.10620117 C29.72682674 231.09840458 29.72416324 233.09072586 29.72216797 235.08300781 C29.71600464 236.79351318 29.71600464 236.79351318 29.7097168 238.53857422 C29.74277069 241.56293222 29.74277069 241.56293222 31.95263672 244.35644531 C32.28263672 240.39644531 32.61263672 236.43644531 32.95263672 232.35644531 C37.83224038 230.79336176 42.02007116 230.08147946 47.18701172 229.97753906 C48.26576065 229.95252319 48.26576065 229.95252319 49.36630249 229.92700195 C51.81165145 229.87326154 54.2570195 229.8334757 56.70263672 229.79394531 C58.46810946 229.75874219 60.23357143 229.72299537 61.99902344 229.68676758 C93.64651581 229.06765026 125.30158701 228.74191931 156.95263672 228.35644531 C156.95263672 228.02644531 156.95263672 227.69644531 156.95263672 227.35644531 C152.17278191 226.18347481 147.40925647 226.05989602 142.51513672 225.85644531 C140.84962844 225.78688812 139.1842537 225.7140449 137.51904297 225.63769531 C136.7862915 225.60740234 136.05354004 225.57710938 135.29858398 225.54589844 C132.48128702 225.31838023 129.7342795 224.85078169 126.95263672 224.35644531 C126.92758057 223.06770508 126.90252441 221.77896484 126.87670898 220.45117188 C126.78095486 215.56797009 126.68117865 210.68485666 126.58032227 205.80175781 C126.53759615 203.70737812 126.4958926 201.61297725 126.45532227 199.51855469 C126.18835485 185.78126827 125.72755057 172.07479745 124.95263672 158.35644531 C124.62263672 158.35644531 124.29263672 158.35644531 123.95263672 158.35644531 Z " fill="#280C0C" transform="translate(1634.04736328125,96.6435546875)"/>
<path d="M0 0 C5.94349303 0.40502409 9.76834761 3.07592376 14.5625 6.3125 C15.30435547 6.79912109 16.04621094 7.28574219 16.81054688 7.78710938 C18.89311382 9.16497869 20.94636639 10.57955685 23 12 C23.91652344 12.59167969 24.83304688 13.18335938 25.77734375 13.79296875 C32.69053629 20.6575624 34.9145964 32.88872603 38.125 41.9375 C39.04175088 44.50877797 39.95976869 47.07960171 40.87776184 49.6504364 C41.5321354 51.4833886 42.18608693 53.31649151 42.83964539 55.1497345 C47.05256381 66.96406558 51.30994403 78.76239377 55.5625 90.5625 C56.33159984 92.69716376 57.10064402 94.83184757 57.86962891 96.96655273 C58.23721313 97.98642776 58.60479736 99.0063028 58.98352051 100.05708313 C59.69625515 102.03776192 60.407161 104.0190999 61.11608887 106.00114441 C62.58390218 110.10133418 64.06112382 114.19308611 65.63623047 118.25341797 C66.09529785 119.45756348 66.55436523 120.66170898 67.02734375 121.90234375 C67.415271 122.88581787 67.80319824 123.86929199 68.20288086 124.88256836 C70.08127611 132.22873342 68.87188541 138.77048433 66.7265625 145.90625 C66.48750687 146.73565598 66.24845123 147.56506195 66.00215149 148.41960144 C65.22140212 151.11661169 64.42349401 153.80819545 63.625 156.5 C63.07276179 158.39402863 62.52142172 160.28831934 61.97094727 162.18286133 C58.51199105 174.04708682 54.93381475 185.87470352 51.3248291 197.69396973 C41.12124168 231.13984712 32.27966611 264.94665305 23.45375252 298.77605247 C20.31045632 310.82413373 17.15272915 322.86827265 13.95870972 334.90301514 C13.4507207 336.81946706 12.94427292 338.73632828 12.43948364 340.65362549 C11.74872723 343.27664989 11.05280313 345.89824914 10.35546875 348.51953125 C10.15929962 349.26877365 9.96313049 350.01801605 9.76101685 350.78996277 C9.2039733 352.87017273 8.61429948 354.93601454 8 357 C7.7896109 357.7250473 7.5792218 358.4500946 7.36245728 359.19711304 C7.13238983 359.9051004 6.90232239 360.61308777 6.6652832 361.3425293 C6.46610794 361.97370163 6.26693268 362.60487396 6.0617218 363.25517273 C4.48234787 365.85070642 2.7315947 366.71571075 0 368 C-3.01268005 368.50588989 -3.01268005 368.50588989 -6.40405273 368.69189453 C-7.67985703 368.76852325 -8.95566132 368.84515198 -10.27012634 368.92410278 C-11.65793648 368.99391821 -13.04575932 369.06348156 -14.43359375 369.1328125 C-15.87271403 369.21460547 -17.31176512 369.2976242 -18.75074768 369.38180542 C-22.54070453 369.60036183 -26.33134891 369.80293547 -30.12237549 370.00195312 C-33.93300472 370.20448479 -37.74284078 370.4208575 -41.55273438 370.63671875 C-45.8613617 370.88050388 -50.16999872 371.12319652 -54.47935486 371.35379028 C-55.78352859 371.42411469 -57.08770233 371.49443909 -58.43139648 371.56689453 C-59.68709442 371.63072327 -60.94279236 371.694552 -62.23654175 371.76031494 C-64.80990884 371.92420613 -67.38007152 372.14587763 -69.94436646 372.41693115 C-71.19257172 372.54472961 -72.44077698 372.67252808 -73.72680664 372.80419922 C-75.39472008 373.00128983 -75.39472008 373.00128983 -77.09632874 373.20236206 C-80 373 -80 373 -82.31071472 371.19955444 C-84.46257141 368.39770327 -85.3712615 365.78675495 -86.453125 362.421875 C-86.66988892 361.76035431 -86.88665283 361.09883362 -87.10998535 360.41726685 C-87.83446149 358.19829573 -88.54193266 355.97425628 -89.25 353.75 C-89.76983989 352.14817162 -90.29103605 350.54678285 -90.81347656 348.94580078 C-91.65290649 346.37211952 -92.49112018 343.79808587 -93.32489014 341.2225647 C-95.43703667 334.69982861 -97.5968639 328.19418662 -99.78125 321.6953125 C-106.95500046 300.33958592 -113.97132367 278.94207911 -120.79473877 257.47183228 C-126.2607917 240.28647145 -131.90144274 223.16372531 -137.625 206.0625 C-144.65003494 185.07134997 -151.58409555 164.05437272 -158.40290833 142.99539185 C-160.59114724 136.24381755 -162.80313936 129.50018986 -165.01953125 122.7578125 C-166.03774557 119.65498555 -167.0556148 116.55204562 -168.07336426 113.44906616 C-168.71917457 111.48280368 -169.36633115 109.51698273 -170.01501465 107.55166626 C-173.15144194 98.04712486 -176.22798193 88.5294751 -178.99609375 78.91015625 C-179.21636734 78.16753036 -179.43664093 77.42490448 -179.66358948 76.65977478 C-181.52861493 70.00268559 -181.52861493 70.00268559 -180 67 C-177.51909611 65.76916396 -175.23755867 64.86993174 -172.625 64 C-171.82078613 63.71801758 -171.01657227 63.43603516 -170.18798828 63.14550781 C-167.13100076 62.07995139 -164.06532052 61.0413455 -161 60 C-158.85631746 59.26218039 -156.71354334 58.52176094 -154.5708313 57.78112793 C-146.28865054 54.91854171 -138.00084574 52.07268328 -129.7019043 49.2590332 C-127.49469739 48.50835286 -125.2895967 47.75136182 -123.08911133 46.98120117 C-118.40757846 45.35756198 -114.89760355 44.68738701 -110 45 C-105.89817071 54.34060745 -102.59633366 63.84257179 -99.421875 73.5234375 C-98.89735549 75.11149187 -98.37242396 76.69941019 -97.84710693 78.28720093 C-96.76203266 81.56962649 -95.67972641 84.85294459 -94.59985352 88.13708496 C-93.08398146 92.7470345 -91.56138223 97.35473663 -90.03710938 101.96191406 C-87.35220465 110.08089876 -84.67694518 118.20303665 -82.00579834 126.32655716 C-81.23373269 128.67447017 -80.46135104 131.02227909 -79.68896484 133.37008667 C-72.41428059 155.48783726 -65.21169976 177.62662721 -58.17285156 199.82080078 C-57.88315491 200.73289307 -57.59345825 201.64498535 -57.29498291 202.5847168 C-56.73140729 204.3595648 -56.16899426 206.13478246 -55.60784912 207.91040039 C-54.06106799 212.77691709 -52.45443925 217.6175088 -50.7890625 222.44482422 C-50.4185376 223.5266246 -50.0480127 224.60842499 -49.66625977 225.7230072 C-48.94944718 227.80805225 -48.22386231 229.89010961 -47.48803711 231.96852112 C-44.10682697 241.82606768 -45.15383125 248.56516442 -48.0625 258.40234375 C-48.37324463 259.48004532 -48.68398926 260.55774689 -49.00415039 261.66810608 C-49.99408058 265.0938256 -50.99683643 268.51563501 -52 271.9375 C-52.67533018 274.2660294 -53.34981883 276.59480303 -54.0234375 278.92382812 C-55.67255406 284.61875074 -57.33220358 290.31052166 -59 296 C-49.39690439 267.97038573 -40.85749329 239.82178368 -33.37963867 211.15209961 C-32.71199967 208.59604144 -32.04377657 206.04013577 -31.375 203.484375 C-31.20651865 202.84033785 -31.0380373 202.1963007 -30.86445045 201.53274727 C-26.32470308 184.21081312 -21.42024898 166.99120596 -16.51290512 149.77051926 C-15.82027208 147.33977552 -15.12839026 144.90881906 -14.43667603 142.47781372 C-13.13301235 137.89738341 -11.82704746 133.31761323 -10.51953125 128.73828125 C-10.22812508 127.71735508 -10.22812508 127.71735508 -9.93083191 126.67580414 C-8.82218631 122.79450779 -7.7070919 118.9151407 -6.58630753 115.03732681 C-5.94500224 112.80889141 -5.31153725 110.57828449 -4.67758179 108.3477478 C-4.23282667 106.79970894 -3.78781495 105.25174377 -3.3425293 103.70385742 C-3.13826482 102.97890988 -2.93400034 102.25396235 -2.72354603 101.5070467 C-1.78465571 98.26551902 -0.8886142 95.83292129 1 93 C1.99 92.67 2.98 92.34 4 92 C3.53868179 91.70234238 3.07736359 91.40468475 2.60206604 91.0980072 C-2.20067949 87.99293133 -6.98241271 84.85735523 -11.75317383 81.70336914 C-13.53573837 80.5307189 -15.32349376 79.36591977 -17.11645508 78.20922852 C-19.69459983 76.54404275 -22.25268872 74.85140876 -24.80859375 73.15234375 C-25.6127623 72.64162827 -26.41693085 72.13091278 -27.24546814 71.60472107 C-30.94967047 69.10427055 -32.71049365 67.84079532 -34.19824219 63.52001953 C-33.96714622 59.41664317 -33.0095971 57.11492112 -31.01953125 53.52734375 C-30.69533707 52.93052292 -30.37114288 52.33370209 -30.03712463 51.71879578 C-28.97952682 49.78160328 -27.89668759 47.85991611 -26.8125 45.9375 C-26.07403283 44.59840251 -25.33722937 43.25838625 -24.60205078 41.91748047 C-23.11978687 39.21937502 -21.6279607 36.52691692 -20.12841797 33.83837891 C-18.20605337 30.38437072 -16.33107384 26.90687971 -14.47265625 23.41796875 C-13.94502686 22.43127197 -13.41739746 21.4445752 -12.8737793 20.42797852 C-11.90773018 18.6212983 -10.94415926 16.8132897 -9.98364258 15.00366211 C-7.07449831 9.63379351 -3.80338764 4.77861524 0 0 Z " fill="#280C0C" transform="translate(375,20)"/>
<path d="M0 0 C3.63521811 3.18461308 7.19490656 6.42082271 10.6796875 9.76953125 C18.11217023 16.86547575 25.79300701 23.61135138 33.6171875 30.26953125 C37.97825882 33.98997341 42.27233774 37.76323677 46.4921875 41.64453125 C52.30989221 46.98171758 58.34203152 52.09824578 64.65234375 56.84765625 C72.60298838 62.9478951 74.65516516 70.41697415 75.91796875 79.984375 C76.15777214 81.63142677 76.15777214 81.63142677 76.40242004 83.31175232 C76.88915858 86.69113006 77.3493087 90.07330083 77.8046875 93.45703125 C78.07786853 95.41563136 78.35176048 97.37413249 78.62646484 99.33251953 C79.29937793 104.18566842 79.94518492 109.04204927 80.5824585 113.8999939 C81.32083628 119.5217513 82.07237681 125.14174848 82.82421875 130.76171875 C83.06247375 132.54327614 83.06247375 132.54327614 83.30554199 134.36082458 C85.10884121 147.79687541 87.00068882 161.22034558 88.89709854 174.64351273 C89.36850719 177.98156759 89.83889882 181.31976571 90.30932617 184.65795898 C90.49934234 186.00616985 90.68936005 187.3543805 90.87937927 188.70259094 C90.97391325 189.37334467 91.06844723 190.0440984 91.16584587 190.73517799 C91.4537595 192.77793933 91.74171284 194.82069507 92.02967834 196.8634491 C92.52022826 200.34329346 93.01067131 203.82315287 93.50108337 207.30301666 C93.81089546 209.50107556 94.12083952 211.69911583 94.43078613 213.89715576 C95.59172122 222.13233921 96.74911193 230.3680041 97.89904594 238.60473156 C98.39609768 242.16436295 98.89472473 245.72375469 99.39764404 249.28256226 C99.95517067 253.22802626 100.50520687 257.17450111 101.0546875 261.12109375 C101.21780426 262.26734726 101.38092102 263.41360077 101.54898071 264.59458923 C102.00261889 267.87890245 102.41575273 271.16444926 102.8046875 274.45703125 C103.03768555 276.35518585 103.03768555 276.35518585 103.27539062 278.29168701 C103.40365234 279.54942932 103.53191406 280.80717163 103.6640625 282.10302734 C103.78749023 283.24726166 103.91091797 284.39149597 104.03808594 285.57040405 C103.8046875 288.45703125 103.8046875 288.45703125 101.98719788 290.29866028 C99.29114008 291.72959739 96.78076994 292.39994479 93.80078125 293.0703125 C92.59784424 293.34601074 91.39490723 293.62170898 90.15551758 293.90576172 C88.8511578 294.19406331 87.54671233 294.4819774 86.2421875 294.76953125 C84.89916385 295.07233157 83.55631082 295.37588955 82.21362305 295.68017578 C79.44861653 296.30508762 76.68234665 296.92393594 73.91503906 297.53857422 C70.00619063 298.40852362 66.10437023 299.30746433 62.203125 300.2109375 C59.84127929 300.75188509 57.47930583 301.29227532 55.1171875 301.83203125 C54.03945068 302.08251221 52.96171387 302.33299316 51.85131836 302.59106445 C46.83561778 303.71913605 41.8218094 304.70391483 36.72265625 305.37109375 C35.41010864 305.54439209 35.41010864 305.54439209 34.07104492 305.72119141 C31.8046875 305.45703125 31.8046875 305.45703125 30.25576782 303.96696472 C28.24167 300.48317995 27.84132096 296.95978625 27.32104492 293.03393555 C27.19651003 292.16699129 27.07197514 291.30004704 26.94366646 290.40683174 C26.52508928 287.47064775 26.12392632 284.53234572 25.72265625 281.59375 C25.4235634 279.46761546 25.1235007 277.34161716 24.82255554 275.21574402 C23.98310905 269.25955318 23.15999092 263.30120205 22.34020233 257.34227753 C21.79170882 253.36286884 21.23942961 249.38400417 20.68560791 245.40533447 C18.12405267 226.99869166 15.58856246 208.58853537 13.06440532 190.17673004 C12.00612264 182.45777665 10.94562013 174.73912872 9.88493216 167.02050555 C7.41884086 149.07469283 7.41884086 149.07469283 6.25216144 140.57060331 C6.06822702 139.22995213 5.88424065 137.88930806 5.70020109 136.54867131 C5.25551131 133.30892567 4.81179146 130.06905227 4.3695116 126.82897663 C3.57505708 121.01772169 2.77308701 115.20788229 1.93868452 109.40223366 C1.65147505 107.40218082 1.36671545 105.40179347 1.08263683 103.40129375 C0.72954076 100.92136951 0.37164223 98.44212213 0.00791645 95.96373463 C-0.87381203 89.73726007 -1.58071055 83.74699065 -1.1953125 77.45703125 C1.3701469 74.89157185 3.28155418 74.91657038 6.8046875 74.45703125 C-5.45210228 75.15932823 -17.58853251 76.82783595 -29.7578125 78.39453125 C-41.58645679 79.9153701 -53.41097091 81.43359828 -65.27734375 82.6328125 C-66.07733292 82.71434067 -66.87732208 82.79586884 -67.70155334 82.87986755 C-80.68618612 84.14821316 -80.68618612 84.14821316 -86.1953125 83.45703125 C-86.8553125 82.79703125 -87.5153125 82.13703125 -88.1953125 81.45703125 C-88.30512757 113.13083549 -88.25955199 144.78733083 -87.6953125 176.45703125 C-87.20423473 204.02030207 -87.10886091 231.57709816 -87.1328125 259.14453125 C-87.13366852 260.13171143 -87.13452454 261.1188916 -87.13540649 262.13598633 C-87.14672078 274.24301991 -87.16674679 286.35002647 -87.1953125 298.45703125 C-90.7012298 300.01366534 -93.67827551 300.77041101 -97.49780273 301.05126953 C-98.533358 301.13120148 -99.56891327 301.21113342 -100.635849 301.29348755 C-101.74730789 301.3706601 -102.85876678 301.44783264 -104.00390625 301.52734375 C-105.16221451 301.61329803 -106.32052277 301.69925232 -107.51393127 301.78781128 C-109.96725752 301.96805212 -112.42087879 302.14431487 -114.87475586 302.31689453 C-118.58852795 302.57890691 -122.30106672 302.85480536 -126.01367188 303.1328125 C-155.03818399 305.265669 -155.03818399 305.265669 -160.1953125 304.45703125 C-178.31207385 277.28188922 -164.50806089 202.40853607 -164.82391453 168.63036346 C-164.89651624 160.88848441 -164.97977849 153.14686655 -165.07604861 145.40524453 C-165.14449416 139.8313596 -165.20120733 134.25742884 -165.24921536 128.68333083 C-165.27780636 125.39952967 -165.31293574 122.1160271 -165.35787201 118.83240318 C-165.40625613 115.22116393 -165.43543595 111.61024843 -165.45996094 107.9987793 C-165.47852646 106.94196457 -165.49709198 105.88514984 -165.51622009 104.79631042 C-165.540134 96.50694552 -164.09983474 90.16158699 -158.6328125 83.64453125 C-157.9315625 82.80535156 -157.2303125 81.96617187 -156.5078125 81.1015625 C-153.24497589 77.37024429 -149.92634678 73.69451592 -146.5703125 70.046875 C-143.98949089 67.23259091 -141.4773089 64.36619888 -138.97265625 61.484375 C-136.90171763 59.12213952 -134.80018402 56.78907272 -132.6953125 54.45703125 C-130.00547819 51.47640404 -127.33220886 48.48457892 -124.6953125 45.45703125 C-122.05841614 42.42948358 -119.38514681 39.43765846 -116.6953125 36.45703125 C-114.07692184 33.55259791 -111.46321055 30.64529472 -108.8828125 27.70703125 C-108.33109375 27.08054687 -107.779375 26.4540625 -107.2109375 25.80859375 C-105.54567447 23.86578688 -103.92088124 21.90129016 -102.3046875 19.91796875 C-101.78302002 19.28729492 -101.26135254 18.65662109 -100.72387695 18.00683594 C-99.6832249 16.74789765 -98.65262469 15.48056493 -97.63354492 14.20410156 C-97.14732666 13.61983398 -96.6611084 13.03556641 -96.16015625 12.43359375 C-95.52001587 11.645896 -95.52001587 11.645896 -94.86694336 10.84228516 C-90.84388023 7.50843672 -85.56961551 7.11260456 -80.54296875 6.5625 C-79.90238525 6.49003555 -79.26180176 6.41757111 -78.60180664 6.34291077 C-76.48772814 6.10450589 -74.37281079 5.87461995 -72.2578125 5.64453125 C-69.20527167 5.30347651 -66.15334901 4.95710946 -63.1015625 4.609375 C-61.90805931 4.47397812 -61.90805931 4.47397812 -60.69044495 4.33584595 C-54.67335173 3.64584336 -48.6679997 2.88181829 -42.6640625 2.0859375 C-41.7934166 1.97110519 -40.92277069 1.85627289 -40.02574158 1.73796082 C-36.60126996 1.28552534 -33.17696756 0.83240368 -29.75442505 0.36557007 C-5.95918825 -2.87760313 -5.95918825 -2.87760313 0 0 Z " fill="#280C0C" transform="translate(854.1953125,85.54296875)"/>
<path d="M0 0 C0.94875 0.845625 1.8975 1.69125 2.875 2.5625 C3.70257812 3.29984375 4.53015625 4.0371875 5.3828125 4.796875 C7.16962294 6.3953322 8.94382429 8.00803279 10.703125 9.63671875 C12.72113802 11.5933966 12.72113802 11.5933966 14.875 12.5625 C15.4624939 15.33042908 15.4624939 15.33042908 15.91943359 19.03881836 C16.00199591 19.70868995 16.08455822 20.37856153 16.16962242 21.06873226 C17.10820097 29.00498752 17.64551547 36.96883203 18.1640625 44.94140625 C18.27300628 46.56796744 18.3822556 48.19450819 18.49179077 49.82102966 C18.71843949 53.20331787 18.9415859 56.58581293 19.16210938 59.96850586 C19.44239823 64.26396054 19.73132236 68.55878242 20.0228672 72.85348606 C20.24935185 76.20364697 20.47131081 79.55409653 20.69196701 82.90464592 C20.79666927 84.48687577 20.90268593 86.06901931 21.01015091 87.65106392 C21.52091615 95.20561539 21.95961827 102.76128119 22.13427734 110.33178711 C22.1612973 111.41826035 22.18831726 112.50473358 22.21615601 113.62413025 C21.55307814 119.33520643 17.77937126 122.63539586 13.875 126.5625 C12.73645817 127.78103465 11.60266788 129.00401944 10.47265625 130.23046875 C8.04227811 132.86343295 5.59732047 135.48119873 3.13671875 138.0859375 C0.2059457 141.19631455 -2.63370266 144.37058895 -5.421875 147.609375 C-7.61865905 150.12862276 -9.87189619 152.59352996 -12.125 155.0625 C-15.57828153 158.84912998 -18.98599051 162.6672632 -22.34765625 166.53515625 C-24.41859487 168.89739173 -26.52012848 171.23045853 -28.625 173.5625 C-31.31483431 176.54312721 -33.98810364 179.53495233 -36.625 182.5625 C-40.04282027 186.47990884 -43.48845922 190.37038729 -46.98828125 194.21484375 C-48.29446101 195.64996996 -49.58716824 197.09769708 -50.85546875 198.56640625 C-52.375 200.25 -52.375 200.25 -55.125 202.5625 C-57.9375 202.4375 -57.9375 202.4375 -60.125 201.5625 C-60.455 201.5625 -60.785 201.5625 -61.125 201.5625 C-60.66609375 202.27535156 -60.2071875 202.98820313 -59.734375 203.72265625 C-58.81398438 205.15931641 -58.81398438 205.15931641 -57.875 206.625 C-57.27171875 207.56472656 -56.6684375 208.50445312 -56.046875 209.47265625 C-53.98246117 212.79166304 -52.04573974 216.15871122 -50.125 219.5625 C-49.39539063 218.99144531 -48.66578125 218.42039062 -47.9140625 217.83203125 C-40.78865952 212.28720606 -33.54289697 206.93484747 -26.21020508 201.66772461 C-20.59080939 197.62898625 -15.00571469 193.54647397 -9.4375 189.4375 C-8.65093018 188.85959717 -7.86436035 188.28169434 -7.05395508 187.6862793 C-3.25380714 184.89092694 0.5250568 182.07391468 4.265625 179.19921875 C4.95052002 178.67924316 5.63541504 178.15926758 6.34106445 177.62353516 C7.62104927 176.65058819 8.89355512 175.66769309 10.15698242 174.67333984 C14.25599064 171.57792016 14.25599064 171.57792016 17.0703125 171.5078125 C25.95512066 176.70023285 32.65355622 192.35286654 38.13427734 200.86474609 C41.56172787 206.17657335 45.02015963 211.46833589 48.47338867 216.76342773 C49.46994233 218.29483412 50.46085608 219.8299297 51.4453125 221.36914062 C52.40869982 222.84712418 53.40460804 224.30435046 54.4296875 225.74023438 C57.92284764 230.78643463 57.92284764 230.78643463 57.71484375 234.16015625 C54.85970397 237.88820501 51.26180037 240.32068617 47.4375 243 C45.70027639 244.24705538 43.96330413 245.49446097 42.2265625 246.7421875 C41.33614258 247.37608398 40.44572266 248.00998047 39.52832031 248.66308594 C35.42130951 251.60314335 31.36995922 254.6171603 27.3125 257.625 C24.16914652 259.94088021 21.02213656 262.25176459 17.875 264.5625 C17.05451172 265.16610352 16.23402344 265.76970703 15.38867188 266.39160156 C12.9502493 268.18276498 10.50710251 269.96728349 8.0625 271.75 C7.32765381 272.29084229 6.59280762 272.83168457 5.83569336 273.38891602 C5.14096924 273.89350342 4.44624512 274.39809082 3.73046875 274.91796875 C2.82784302 275.57768677 2.82784302 275.57768677 1.90698242 276.25073242 C1.23642822 276.68361572 0.56587402 277.11649902 -0.125 277.5625 C-0.9612793 278.12501465 -1.79755859 278.6875293 -2.65917969 279.26708984 C-7.72362562 281.16001392 -12.12388422 280.48861824 -17.43359375 279.93359375 C-19.08457314 279.78040932 -19.08457314 279.78040932 -20.76890564 279.62413025 C-32.59784152 278.49507934 -44.39567086 277.08530836 -56.1875 275.625 C-59.32486836 275.24250127 -62.46240303 274.86138735 -65.59994507 274.48031616 C-67.6684516 274.22683946 -69.73651827 273.96974494 -71.80410767 273.70889282 C-77.13672694 273.03678587 -82.46796085 272.41633103 -87.81591797 271.87841797 C-88.90440536 271.76171249 -89.99289276 271.64500702 -91.11436462 271.52476501 C-93.18548152 271.30355184 -95.25842148 271.09856838 -97.33302307 270.91285706 C-103.54793865 270.22507088 -106.77355328 269.11594895 -111.125 264.5625 C-112.69574049 262.55335078 -114.19295491 260.48524954 -115.625 258.375 C-119.5320272 252.72673194 -123.62785046 247.27180696 -127.875 241.875 C-133.28816081 234.97817775 -138.54193148 227.98359771 -143.71362305 220.90429688 C-148.93519856 213.77353025 -154.29575142 206.75296974 -159.70849609 199.76635742 C-160.34223145 198.94240479 -160.9759668 198.11845215 -161.62890625 197.26953125 C-162.18392822 196.5525708 -162.7389502 195.83561035 -163.31079102 195.09692383 C-163.90947998 194.26056396 -164.50816895 193.4242041 -165.125 192.5625 C-165.53976939 192.00310447 -165.95453878 191.44370893 -166.38187695 190.86736202 C-169.91646562 185.75552692 -170.82370649 182.10948758 -170.52441406 175.96191406 C-170.50409245 175.14454899 -170.48377083 174.32718391 -170.4628334 173.4850502 C-170.38419924 170.84161024 -170.26111479 168.20357159 -170.125 165.5625 C-170.08259689 164.68945724 -170.04019379 163.81641449 -169.99650574 162.91691589 C-169.66155796 156.32890451 -169.20887574 149.75109806 -168.734375 143.171875 C-168.58692649 141.08588277 -168.4395691 138.99988411 -168.29229736 136.91387939 C-167.98461064 132.58396866 -167.67102025 128.25453 -167.35400391 123.92529297 C-166.94976012 118.38874143 -166.56810181 112.85087079 -166.19158554 107.31237411 C-165.89615915 103.02206368 -165.58513642 98.73298693 -165.26978302 94.44409943 C-165.12219072 92.40163551 -164.98027952 90.35875245 -164.84429169 88.31548309 C-164.65317507 85.46763797 -164.44012274 82.62222894 -164.22167969 79.77636719 C-164.17060562 78.94306381 -164.11953156 78.10976044 -164.06690979 77.25120544 C-163.43157844 69.54103796 -160.49824314 64.46737677 -154.8125 59.125 C-151.9044037 56.3216142 -149.12847504 53.50504311 -146.5 50.4375 C-144.29771853 47.86986308 -142.03832717 45.43292357 -139.625 43.0625 C-137.29376968 40.77234863 -135.11531436 38.42794399 -133 35.9375 C-129.19514475 31.51284933 -125.05431745 27.45503565 -120.8996582 23.36328125 C-117.29565655 19.79531439 -113.91788133 16.14506169 -110.78515625 12.1484375 C-106.7036132 8.24936343 -101.95528537 7.14266631 -96.4921875 6.5703125 C-95.84271149 6.499263 -95.19323547 6.4282135 -94.52407837 6.35501099 C-92.35045438 6.12071047 -90.175486 5.90377707 -88 5.6875 C-86.44589022 5.52511429 -84.89185566 5.3620073 -83.33789062 5.19824219 C-78.93488104 4.7388776 -74.53016501 4.29812681 -70.12487793 3.86120605 C-66.92825781 3.54290984 -63.73217245 3.21957892 -60.53613281 2.89550781 C-54.72330173 2.30715707 -48.90964501 1.72767179 -43.09527588 1.15472412 C-40.79773218 0.92814995 -38.50032536 0.70018299 -36.20306396 0.47076416 C-32.93802554 0.14623776 -29.67229634 -0.17017347 -26.40625 -0.484375 C-25.44490143 -0.58104462 -24.48355286 -0.67771423 -23.49307251 -0.77731323 C-5.40254475 -2.48517059 -5.40254475 -2.48517059 0 0 Z M-46.125 55.5625 C-46.455 56.2225 -46.785 56.8825 -47.125 57.5625 C-46.465 57.5625 -45.805 57.5625 -45.125 57.5625 C-45.455 56.9025 -45.785 56.2425 -46.125 55.5625 Z M-48.125 58.5625 C-56.14634787 65.35988198 -63.53503802 72.6157776 -70.37890625 80.59765625 C-72.85103418 83.37949148 -75.50930547 85.95625951 -78.16015625 88.56640625 C-80.04730744 90.48357177 -81.81185375 92.45825322 -83.5625 94.5 C-86.13165271 97.49051716 -88.81817256 100.29366684 -91.625 103.0625 C-94.41121141 105.8110599 -97.07808392 108.59109791 -99.625 111.5625 C-102.2941622 114.64230254 -105.00920041 117.6662156 -107.8125 120.625 C-108.53824219 121.39972656 -109.26398438 122.17445313 -110.01171875 122.97265625 C-112.125 124.5625 -112.125 124.5625 -114.16015625 124.5 C-116.41109705 123.42599246 -118.02568605 122.1714953 -119.875 120.5 C-120.48859375 119.95214844 -121.1021875 119.40429688 -121.734375 118.83984375 C-122.19328125 118.41832031 -122.6521875 117.99679688 -123.125 117.5625 C-119.68074047 126.90400389 -113.35104044 134.89822529 -107.125 142.5625 C-102.66856733 142.14770078 -100.24208823 139.05182738 -97.3125 136 C-96.50921265 135.17918945 -96.50921265 135.17918945 -95.68969727 134.34179688 C-92.33229905 130.8872523 -89.08955555 127.35464344 -85.96484375 123.6875 C-83.57473122 120.9269454 -81.10012786 118.24651868 -78.625 115.5625 C-75.00377153 111.62995798 -71.43540342 107.66035142 -67.93359375 103.62109375 C-65.6948875 101.0729335 -63.41089788 98.56839407 -61.125 96.0625 C-58.22130963 92.87809032 -55.33325953 89.68475179 -52.5 86.4375 C-51.95214844 85.81617188 -51.40429688 85.19484375 -50.83984375 84.5546875 C-49.57407019 83.08419885 -48.34183089 81.58468808 -47.12890625 80.0703125 C-46.10603516 78.82894531 -46.10603516 78.82894531 -45.0625 77.5625 C-44.45277344 76.799375 -43.84304688 76.03625 -43.21484375 75.25 C-40.40947193 72.9847278 -38.64603636 73.26323529 -35.125 73.5625 C-34.135 73.5625 -33.145 73.5625 -32.125 73.5625 C-39.81340255 65.72060537 -39.81340255 65.72060537 -48.125 58.5625 Z M-125.125 114.5625 C-124.795 115.5525 -124.465 116.5425 -124.125 117.5625 C-124.125 116.5725 -124.125 115.5825 -124.125 114.5625 C-124.455 114.5625 -124.785 114.5625 -125.125 114.5625 Z " fill="#280C0C" transform="translate(618.125,109.4375)"/>
<path d="M0 0 C1.04010814 0.94105022 2.07399466 1.88902241 3.1015625 2.84375 C3.90013672 3.55337891 3.90013672 3.55337891 4.71484375 4.27734375 C9.32067345 8.50814406 9.75940603 11.50761559 10.17553711 17.53833008 C10.28595589 19.10108925 10.28595589 19.10108925 10.39860535 20.69541931 C10.47460464 21.82331375 10.55060394 22.95120819 10.62890625 24.11328125 C10.71098831 25.29011978 10.79307037 26.46695831 10.87763977 27.67945862 C11.14343888 31.50481298 11.40396829 35.33050385 11.6640625 39.15625 C11.84388548 41.76970709 12.02389861 44.38315111 12.20410156 46.99658203 C12.6396999 53.33020855 13.07049969 59.66415017 13.49945068 65.99822998 C13.70069044 68.96263602 13.90367897 71.9269121 14.10791016 74.89111328 C14.40245177 79.16666834 14.69083065 83.44259691 14.9765625 87.71875 C15.05640381 88.88253174 15.13624512 90.04631348 15.21850586 91.24536133 C15.41572829 94.27757065 15.58198335 97.30861872 15.7265625 100.34375 C15.78271729 101.3447876 15.83887207 102.3458252 15.89672852 103.37719727 C16.13850237 110.50982295 16.13850237 110.50982295 14.28515625 114.26171875 C13.58519531 115.01066406 12.88523438 115.75960937 12.1640625 116.53125 C11.35066406 117.4284375 10.53726563 118.325625 9.69921875 119.25 C8.7089154 120.28180897 7.7179732 121.31300498 6.7265625 122.34375 C5.49411891 123.66482708 4.26377789 124.9878677 3.03515625 126.3125 C0.49804467 129.04067528 -2.05634485 131.75075459 -4.625 134.44921875 C-7.72432728 137.7247758 -10.70660234 141.08763091 -13.66162109 144.4934082 C-15.82696669 146.97919346 -18.04720952 149.4124747 -20.2734375 151.84375 C-23.72671903 155.63037998 -27.13442801 159.4485132 -30.49609375 163.31640625 C-32.56703237 165.67864173 -34.66856598 168.01170853 -36.7734375 170.34375 C-39.46327181 173.32437721 -42.13654114 176.31620233 -44.7734375 179.34375 C-45.93933615 180.67775496 -47.10606159 182.01103759 -48.2734375 183.34375 C-49.01851563 184.19453125 -49.76359375 185.0453125 -50.53125 185.921875 C-51.31242187 186.80359375 -52.09359375 187.6853125 -52.8984375 188.59375 C-53.61257812 189.40328125 -54.32671875 190.2128125 -55.0625 191.046875 C-57.37428873 193.44852124 -59.46778828 195.53086897 -62.2734375 197.34375 C-65.0859375 197.09375 -65.0859375 197.09375 -67.2734375 196.34375 C-66.81453125 197.05660156 -66.355625 197.76945313 -65.8828125 198.50390625 C-62.54351445 203.71629796 -59.27986209 208.93218574 -56.2734375 214.34375 C-55.71398437 213.88226563 -55.15453125 213.42078125 -54.578125 212.9453125 C-49.77572216 209.03853463 -44.88955144 205.29402157 -39.8359375 201.71875 C-34.23177763 197.75326505 -28.67506845 193.72919097 -23.1484375 189.65625 C-22.35953125 189.07576904 -21.570625 188.49528809 -20.7578125 187.8972168 C-16.39784469 184.68016591 -12.06390385 181.43217317 -7.75390625 178.1484375 C-6.84850098 177.46096436 -5.9430957 176.77349121 -5.01025391 176.06518555 C-3.25956239 174.73370745 -1.51296421 173.3968258 0.22900391 172.05395508 C1.02097168 171.45220459 1.81293945 170.8504541 2.62890625 170.23046875 C3.32491943 169.69639404 4.02093262 169.16231934 4.73803711 168.61206055 C6.80724432 167.29228996 8.28417829 166.59191508 10.7265625 166.34375 C14.70117526 169.60771206 17.4603107 173.61992053 20.2265625 177.90625 C20.6481665 178.54900879 21.06977051 179.19176758 21.50415039 179.85400391 C22.91785259 182.01325203 24.32233273 184.1783315 25.7265625 186.34375 C26.77700453 187.95464834 27.82779657 189.56531848 28.87890625 191.17578125 C31.07933367 194.54974804 33.27063601 197.92942642 35.45703125 201.3125 C37.59942433 204.62283256 39.76881549 207.91252152 41.96484375 211.1875 C42.47281494 211.9520752 42.98078613 212.71665039 43.50415039 213.50439453 C44.45737314 214.93794292 45.41833026 216.36639086 46.38842773 217.78857422 C48.86400235 221.53399832 50.9056159 224.70115118 50.7265625 229.34375 C47.2289471 233.88215378 42.25571677 236.99952631 37.6015625 240.28125 C35.98374707 241.43531817 34.36658046 242.59029632 32.75 243.74609375 C31.91952148 244.33890137 31.08904297 244.93170898 30.23339844 245.54248047 C26.20311277 248.43841421 22.21631726 251.39237935 18.2265625 254.34375 C16.6471829 255.50397089 15.06775573 256.66412703 13.48828125 257.82421875 C10.23926097 260.21495673 7.01803802 262.63846985 3.80859375 265.08203125 C2.21891149 266.27365297 0.6290734 267.46506683 -0.9609375 268.65625 C-1.67894531 269.21376953 -2.39695313 269.77128906 -3.13671875 270.34570312 C-3.82507813 270.85681641 -4.5134375 271.36792969 -5.22265625 271.89453125 C-5.81393311 272.34481689 -6.40520996 272.79510254 -7.0144043 273.2590332 C-13.0678343 276.16570018 -19.65625183 275.33989545 -26.09765625 274.5234375 C-27.36357101 274.37514748 -27.36357101 274.37514748 -28.65505981 274.22386169 C-31.42480939 273.89760618 -34.19278378 273.55825707 -36.9609375 273.21875 C-39.89517782 272.8688124 -42.82977414 272.52196707 -45.76438904 272.17518616 C-47.80078985 271.93425522 -49.83705358 271.69216308 -51.8731842 271.44895935 C-59.22313812 270.57376995 -66.57792691 269.7547739 -73.9375 268.96484375 C-74.96154434 268.8542865 -75.98558868 268.74372925 -77.04066467 268.62982178 C-83.03118492 267.98323338 -83.03118492 267.98323338 -89.02279663 267.34686279 C-91.78014501 267.05576219 -94.53658704 266.7571275 -97.29296875 266.45703125 C-98.10154327 266.3738414 -98.9101178 266.29065155 -99.74319458 266.2049408 C-111.3567763 264.92151097 -111.3567763 264.92151097 -115.25756836 261.71044922 C-115.76682861 261.07123535 -116.27608887 260.43202148 -116.80078125 259.7734375 C-117.37940918 259.05768555 -117.95803711 258.34193359 -118.55419922 257.60449219 C-119.12154785 256.85844727 -119.68889648 256.11240234 -120.2734375 255.34375 C-120.81371582 254.63637695 -121.35399414 253.92900391 -121.91064453 253.20019531 C-123.57665518 250.97314514 -125.20920994 248.72463004 -126.8359375 246.46875 C-131.5432714 240.00691034 -136.33563759 233.63119206 -141.2734375 227.34375 C-146.6428469 220.49421015 -151.91449078 213.5821595 -156.99267578 206.51293945 C-159.93904025 202.42345224 -162.955817 198.49878678 -166.265625 194.6953125 C-167.24015625 193.52246704 -167.24015625 193.52246704 -168.234375 192.32592773 C-169.44935549 190.8693459 -170.70398051 189.44426804 -172.0078125 188.06665039 C-178.86422496 179.629432 -176.86620915 168.50641358 -176.2734375 158.34375 C-176.2312207 157.61921505 -176.18900391 156.8946801 -176.14550781 156.14818954 C-175.40313082 143.58216547 -174.48936829 131.02941071 -173.550354 118.47680664 C-173.26293749 114.61218766 -172.98255022 110.74707315 -172.70247746 106.88191605 C-172.3651553 102.22839997 -172.02485103 97.575104 -171.68359375 92.921875 C-171.61982103 92.05173012 -171.55604832 91.18158524 -171.49034309 90.28507233 C-171.09918029 84.97011374 -170.69475758 79.65640151 -170.2734375 74.34375 C-170.18976929 73.26738785 -170.10610107 72.1910257 -170.01989746 71.08204651 C-169.94251343 70.18976852 -169.86512939 69.29749054 -169.78540039 68.37817383 C-169.72389297 67.65398758 -169.66238556 66.92980133 -169.59901428 66.18367004 C-168.48259852 59.87451088 -162.17681285 54.85576036 -157.8984375 50.40625 C-156.4644764 48.90008923 -155.0308901 47.39357156 -153.59765625 45.88671875 C-152.51556885 44.75242432 -152.51556885 44.75242432 -151.41162109 43.59521484 C-147.59139358 39.57259117 -143.82352945 35.50110937 -140.05517578 31.42993164 C-137.28590848 28.45125595 -134.47617363 25.52982471 -131.58984375 22.6640625 C-129.211566 20.30190086 -126.93807701 17.90597636 -124.7734375 15.34375 C-122.4500675 12.66614421 -120.1018063 10.02832524 -117.6484375 7.46875 C-117.11992188 6.91445312 -116.59140625 6.36015625 -116.046875 5.7890625 C-112.10209199 2.57415123 -107.67904581 1.98697257 -102.73828125 1.44921875 C-102.08734497 1.3767543 -101.43640869 1.30428986 -100.76574707 1.22962952 C-98.58157405 0.9891063 -96.39639662 0.75977245 -94.2109375 0.53125 C-92.65305405 0.36381248 -91.09519334 0.19616324 -89.53735352 0.02832031 C-84.11776179 -0.55013751 -78.6958887 -1.10531928 -73.2734375 -1.65625 C-71.67121338 -1.81924591 -71.67121338 -1.81924591 -70.03662109 -1.98553467 C-63.08813839 -2.69036755 -56.13857392 -3.38342299 -49.18777466 -4.06503296 C-46.88381932 -4.2911433 -44.580004 -4.51868516 -42.27633667 -4.74771118 C-39.00375473 -5.07181169 -35.73053666 -5.38850476 -32.45703125 -5.703125 C-31.49051636 -5.79979965 -30.52400146 -5.8964743 -29.52819824 -5.99607849 C-9.46047446 -7.89034179 -9.46047446 -7.89034179 0 0 Z M-58.15527344 55.86914062 C-58.84911133 56.57232422 -59.54294922 57.27550781 -60.2578125 58 C-61.41410156 59.16402344 -61.41410156 59.16402344 -62.59375 60.3515625 C-63.39554687 61.17398438 -64.19734375 61.99640625 -65.0234375 62.84375 C-65.80976562 63.63523437 -66.59609375 64.42671875 -67.40625 65.2421875 C-71.68169279 69.57444681 -75.78544013 74.00532231 -79.75878906 78.61523438 C-81.66834888 80.79442256 -83.69431549 82.82669134 -85.7734375 84.84375 C-89.2022654 88.22616399 -92.39392268 91.72445442 -95.52734375 95.37890625 C-97.99581079 98.15662196 -100.64983443 100.72977786 -103.296875 103.3359375 C-105.24851741 105.31843591 -107.08102267 107.3631108 -108.8984375 109.46875 C-110.02221614 110.76147942 -111.14717418 112.05318473 -112.2734375 113.34375 C-112.81097656 113.96121094 -113.34851563 114.57867187 -113.90234375 115.21484375 C-115.4609375 116.90625 -115.4609375 116.90625 -118.2734375 119.34375 C-121.89294845 119.11070302 -123.60584867 117.33831511 -126.0234375 114.78125 C-126.94382813 113.82025391 -126.94382813 113.82025391 -127.8828125 112.83984375 C-128.34171875 112.34613281 -128.800625 111.85242188 -129.2734375 111.34375 C-129.6034375 112.00375 -129.9334375 112.66375 -130.2734375 113.34375 C-124.88441613 121.57366392 -119.51211357 129.72099679 -113.2734375 137.34375 C-109.38394116 136.79061621 -107.64673727 135.06246007 -104.9609375 132.28125 C-103.76984375 131.04955078 -103.76984375 131.04955078 -102.5546875 129.79296875 C-100.06936189 127.12464827 -97.65936382 124.40776669 -95.28515625 121.640625 C-92.67063719 118.65550421 -89.97306667 115.75180795 -87.2734375 112.84375 C-83.46606876 108.73811889 -79.71029593 104.6024595 -76.046875 100.3671875 C-73.82205658 97.82873829 -71.54840431 95.33733224 -69.2734375 92.84375 C-66.40871935 89.70291444 -63.56157848 86.55274244 -60.7734375 83.34375 C-60.22429687 82.72628906 -59.67515625 82.10882813 -59.109375 81.47265625 C-57.67474309 79.80909372 -56.29478545 78.09834162 -54.9375 76.37109375 C-48.52697712 68.56998052 -48.52697712 68.56998052 -44.6328125 67.8671875 C-42.36214455 68.13138471 -40.41056765 68.54361673 -38.2734375 69.34375 C-42.74924337 63.83506586 -47.52477865 58.55943316 -53.2734375 54.34375 C-56.28875381 54.02890161 -56.28875381 54.02890161 -58.15527344 55.86914062 Z M-131.2734375 109.34375 C-130.2734375 111.34375 -130.2734375 111.34375 -130.2734375 111.34375 Z " fill="#280C0C" transform="translate(176.2734375,114.65625)"/>
<path d="M0 0 C5.76835729 -0.13160484 11.53601897 -0.22365756 17.30560303 -0.27993774 C19.27170301 -0.30258876 21.23772305 -0.33378373 23.20355225 -0.37350464 C25.99801067 -0.42738684 28.79096881 -0.44879777 31.58587646 -0.46234131 C32.85942741 -0.49627739 32.85942741 -0.49627739 34.15870667 -0.53089905 C39.84195705 -0.51056666 39.84195705 -0.51056666 42.46282959 1.98907471 C43.82770304 6.2740554 43.92103878 10.26185581 43.95306396 14.73687744 C43.97101517 15.66203659 43.98896637 16.58719574 44.00746155 17.54039001 C44.061486 20.48474622 44.09543512 23.42894103 44.12884521 26.37359619 C44.16202522 28.37426965 44.19651551 30.37492184 44.23236084 32.37554932 C44.31720806 37.27061503 44.38405688 42.16563352 44.44134521 47.06109619 C45.65717285 47.08091553 46.87300049 47.10073486 48.12567139 47.12115479 C52.64524719 47.19734314 57.16450661 47.28604025 61.68377686 47.378479 C63.6381403 47.41671408 65.59257281 47.45157646 67.54705811 47.48297119 C70.35972743 47.52874054 73.17192361 47.58671542 75.98431396 47.64703369 C76.85533249 47.6585849 77.72635101 47.67013611 78.62376404 47.68203735 C88.29653531 47.91628629 88.29653531 47.91628629 91.44134521 51.06109619 C91.54256406 52.66398251 91.57217403 54.27142465 91.57415771 55.87750244 C91.57617188 56.93324463 91.57818604 57.98898682 91.58026123 59.07672119 C91.57566895 60.24718994 91.57107666 61.41765869 91.56634521 62.62359619 C91.56235718 64.43924072 91.56235718 64.43924072 91.55828857 66.29156494 C91.502211 77.71719418 91.27070906 89.13867892 91.00384521 100.56109619 C90.98428772 101.45120392 90.96473022 102.34131165 90.94458008 103.25839233 C90.88734346 105.80736325 90.82363904 108.35608584 90.75775146 110.90484619 C90.7410289 111.67038315 90.72430634 112.4359201 90.70707703 113.22465515 C90.50803524 120.32444892 90.50803524 120.32444892 89.44134521 123.06109619 C86.08376639 124.7398856 82.29501424 124.24586682 78.60150146 124.26422119 C77.28465614 124.2727713 77.28465614 124.2727713 75.94120789 124.28149414 C74.08262336 124.2909477 72.22402205 124.29747953 70.36541748 124.30133057 C67.51868583 124.31104555 64.67267324 124.34206898 61.82611084 124.37359619 C60.02207868 124.38012525 58.21804134 124.3853761 56.41400146 124.38922119 C55.56080826 124.40156799 54.70761505 124.41391479 53.8285675 124.42663574 C48.00803638 124.40463986 48.00803638 124.40463986 45.75505066 123.03881836 C43.67414683 119.90611486 43.74622108 116.78058174 43.44134521 113.06109619 C42.3518065 131.9926578 42.1633375 150.92481853 41.96902466 169.88122892 C41.92198969 174.36868086 41.86995688 178.85607466 41.81829834 183.34347534 C41.66619853 196.63580327 41.52246292 209.92822027 41.37884521 223.22064209 C41.26666471 233.59013981 41.15245045 243.95960815 41.03282928 254.329023 C40.97180406 259.63833425 40.91462588 264.94766772 40.86054993 270.25705409 C40.82594463 273.572731 40.78789114 276.88836224 40.7489624 280.20399094 C40.73181328 281.72275254 40.71603285 283.24153043 40.70184326 284.76032257 C40.65683664 289.52843168 40.57735802 294.29461754 40.44134521 299.06109619 C40.42083099 299.7923737 40.40031677 300.52365121 40.37918091 301.27708864 C40.30790405 303.48795493 40.21355948 305.69659091 40.11126709 307.90621948 C40.05579712 309.20732981 40.00032715 310.50844013 39.94317627 311.84897804 C39.44134521 315.06109619 39.44134521 315.06109619 38.0869751 316.94577599 C36.44134521 318.06109619 36.44134521 318.06109619 33.44134521 319.06109619 C34.53342537 319.07322647 34.53342537 319.07322647 35.64756775 319.08560181 C42.51859348 319.16363712 49.38944577 319.25095475 56.26021862 319.34862328 C59.79231549 319.39850687 63.3243836 319.44483726 66.85662842 319.48297119 C70.92021283 319.52699873 74.98343993 319.58661726 79.04681396 319.64703369 C80.31156052 319.6585849 81.57630707 319.67013611 82.87937927 319.68203735 C84.06022598 319.70190704 85.24107269 319.72177673 86.45770264 319.74224854 C87.49472824 319.7555722 88.53175385 319.76889587 89.60020447 319.78262329 C92.82292861 320.09849689 96.07166715 320.69141813 98.44134521 323.06109619 C98.58084484 325.05833183 98.65099615 327.0604391 98.6942749 329.06207275 C98.7239032 330.34720764 98.75353149 331.63234253 98.78405762 332.9564209 C98.81101077 334.37151034 98.83738393 335.78661092 98.86322021 337.20172119 C98.87708015 337.91167992 98.89094009 338.62163864 98.90522003 339.35311127 C98.97856677 343.11295071 99.04610984 346.87284224 99.10882568 350.63287354 C99.17462385 354.51476241 99.25924394 358.39599589 99.34840012 362.2774086 C99.41361945 365.26272789 99.46504017 368.2481721 99.51273346 371.23381805 C99.53794607 372.66440472 99.56829081 374.09491066 99.60390472 375.52527618 C99.65249855 377.5307313 99.67968704 379.53667024 99.70599365 381.5425415 C99.72740417 382.68314026 99.7488147 383.82373901 99.77087402 384.99890137 C99.3933404 388.50718798 98.66097265 390.32670602 96.44134521 393.06109619 C87.39274522 396.99937994 75.02240348 395.65626199 65.35614014 395.7612915 C63.12264416 395.79447431 60.88936337 395.84914255 58.65692139 395.925354 C37.7021453 396.63437916 37.7021453 396.63437916 30.64837646 390.22515869 C29.20545856 388.53767059 27.79737744 386.81916466 26.44134521 385.06109619 C25.17833541 383.90401624 23.89180777 382.77107398 22.56634521 381.68609619 C18.41664966 378.08062301 14.39370223 374.34276036 10.36199951 370.60675049 C6.26458732 366.81236806 2.12732318 363.06570853 -2.03131104 359.33843994 C-4.88947759 356.76299774 -7.72568449 354.16415988 -10.55865479 351.56109619 C-17.91795057 344.80284674 -25.27444558 338.04901571 -32.96490479 331.66656494 C-35.96278676 328.64663971 -36.54363183 326.34500148 -36.76934814 322.07939148 C-36.76048224 320.34330765 -36.73991444 318.60726457 -36.71099854 316.87139893 C-36.70269516 315.87923339 -36.69439178 314.88706785 -36.68583679 313.86483669 C-36.66492394 311.5695056 -36.63896956 309.27421725 -36.60913086 306.97898483 C-36.55403755 302.702712 -36.51279799 298.42643132 -36.47320557 294.1499939 C-36.38052909 284.42903119 -36.26846288 274.70832262 -36.1547966 264.98758626 C-36.09779155 260.08830789 -36.04229929 255.18901236 -35.9866333 250.28971863 C-35.88143318 241.0504465 -35.77491061 231.81119013 -35.6678896 222.57193893 C-35.54592819 212.03715595 -35.42547657 201.50235586 -35.30513954 190.96755421 C-35.05796811 169.33204903 -34.80894041 147.69656556 -34.55865479 126.06109619 C-35.81524902 126.04651367 -37.07184326 126.03193115 -38.36651611 126.01690674 C-43.0240337 125.95898015 -47.68106494 125.88174709 -52.3381958 125.79864502 C-54.35471713 125.76536909 -56.3713322 125.73734551 -58.38800049 125.71466064 C-61.28513579 125.68116363 -64.18140996 125.62885075 -67.07818604 125.57281494 C-67.98140091 125.56642502 -68.88461578 125.5600351 -69.81520081 125.55345154 C-70.65584579 125.53365738 -71.49649078 125.51386322 -72.36260986 125.49346924 C-73.10207352 125.48236618 -73.84153717 125.47126312 -74.60340881 125.45982361 C-77.10243655 124.95020442 -78.02936106 124.07163076 -79.55865479 122.06109619 C-79.3850369 117.8001313 -77.4479948 114.99832092 -75.08599854 111.54547119 C-74.35888672 110.4712793 -73.6317749 109.3970874 -72.88262939 108.29034424 C-72.49380585 107.72358978 -72.1049823 107.15683533 -71.70437622 106.57290649 C-69.63881353 103.56093409 -67.60035814 100.53067552 -65.55865479 97.50250244 C-65.14046982 96.88369705 -64.72228485 96.26489166 -64.29142761 95.62733459 C-58.09623406 86.4408525 -52.19602879 77.06476739 -46.25640869 67.7119751 C-44.73618103 65.3382863 -43.19376478 62.98238437 -41.63287354 60.63531494 C-41.2101416 59.99569824 -40.78740967 59.35608154 -40.35186768 58.69708252 C-39.29447925 57.10315509 -38.22787886 55.51534819 -37.16021729 53.92828369 C-33.81332979 47.93653877 -33.26896825 42.15215287 -33.25006104 35.45953369 C-33.22492058 33.81890484 -33.1995223 32.17827992 -33.17388916 30.53765869 C-33.145094 27.97907372 -33.1210413 25.42055651 -33.10235596 22.86187744 C-33.08068062 20.3732628 -33.04126815 17.88539043 -33.00006104 15.39703369 C-32.99994522 14.63546967 -32.99982941 13.87390564 -32.99971008 13.08926392 C-32.91632458 8.60205982 -32.42290492 5.58379948 -29.55865479 2.06109619 C-20.48508473 -0.96342716 -9.49610041 0.22675023 0 0 Z " fill="#280C0C" transform="translate(1012.5586547851563,-0.06109619140625001)"/>
<path d="M0 0 C3.89644204 1.51703401 7.55393901 3.4266865 11.25 5.375 C12.31412109 5.9222876 13.37824219 6.4695752 14.47460938 7.03344727 C17.65720741 8.67504049 20.82927149 10.33562242 24 12 C25.65065806 12.85620869 27.30166512 13.71174513 28.953125 14.56640625 C32.78029663 16.55575552 36.59044852 18.57535049 40.39404297 20.609375 C42.29981225 21.62635662 44.20803866 22.63873743 46.11767578 23.6484375 C49.43675483 25.40379002 52.7501087 27.16956517 56.0625 28.9375 C57.11695313 29.4936499 58.17140625 30.0497998 59.2578125 30.62280273 C60.23621094 31.14817627 61.21460938 31.6735498 62.22265625 32.21484375 C63.09672119 32.68011475 63.97078613 33.14538574 64.87133789 33.62475586 C67 35 67 35 69 38 C70.39443443 46.55479478 70.32221125 55.28374471 70.53515625 63.93359375 C70.5782727 65.5783006 70.62168929 67.22299961 70.66539001 68.86769104 C70.755891 72.30277059 70.84391328 75.73790103 70.92993164 79.1730957 C71.03961036 83.55170609 71.1537333 87.93018558 71.26950932 92.30863857 C71.35903351 95.70173702 71.44706655 99.09487276 71.53457451 102.48802376 C71.57619006 104.10138652 71.61805101 105.71474297 71.66017342 107.32809258 C71.75476732 110.97601155 71.84330873 114.62371373 71.91360474 118.27218628 C71.96667566 120.56210931 72.04484134 122.85181989 72.16525269 125.13919067 C72.41680143 131.26794083 72.41680143 131.26794083 70.53491211 134.57324219 C66.92766532 136.60355619 63.48445109 136.71220608 59.44140625 136.828125 C58.59222122 136.86694794 57.74303619 136.90577087 56.86811829 136.94577026 C54.09998883 137.06652901 51.33175486 137.15901233 48.5625 137.25 C46.6635343 137.32566494 44.7646082 137.40232997 42.86572266 137.47998047 C27.5765163 138.07381672 12.2991067 138.24331831 -3 138 C-6.17751642 132.8532733 -5.56374026 126.70006115 -5.74291992 120.83813477 C-5.8119638 118.70407329 -5.90804651 116.57236494 -6.00585938 114.43945312 C-6.05374355 113.06776528 -6.10001901 111.69602015 -6.14453125 110.32421875 C-6.21184448 108.4692981 -6.21184448 108.4692981 -6.28051758 106.5769043 C-5.89501572 101.66133617 -4.57050883 97.71847968 -1.17578125 94.00390625 C-0.56089844 93.52824219 0.05398438 93.05257812 0.6875 92.5625 C1.62142578 91.82193359 1.62142578 91.82193359 2.57421875 91.06640625 C3.04472656 90.71449219 3.51523438 90.36257812 4 90 C-0.57013322 92.98357392 -4.95719858 96.14972231 -9.3125 99.4375 C-10.34322632 100.212146 -10.34322632 100.212146 -11.39477539 101.00244141 C-15.86434957 104.36813635 -20.30616314 107.76854232 -24.73828125 111.18334961 C-35.58989206 119.53046454 -35.58989206 119.53046454 -40.3125 122.875 C-40.94800781 123.32617188 -41.58351563 123.77734375 -42.23828125 124.2421875 C-44.51432416 125.22123922 -45.71246266 124.81805971 -48 124 C-48.495 120.04 -48.495 120.04 -49 116 C-48.99723462 116.84575686 -48.99446924 117.69151373 -48.99162006 118.56289959 C-48.9253867 139.13555273 -48.8757323 159.70818751 -48.84456348 180.2809248 C-48.82909011 190.22972122 -48.80799158 200.1784465 -48.77368164 210.12719727 C-48.74379371 218.79783863 -48.72442842 227.46842848 -48.71773452 236.13911992 C-48.71382123 240.73081896 -48.70461467 245.32237061 -48.68280983 249.91402245 C-48.66245427 254.2354777 -48.65616431 258.55672478 -48.66067696 262.87822342 C-48.65985134 264.46450367 -48.65388008 266.05079085 -48.64238358 267.63702965 C-48.62745364 269.803172 -48.63104768 271.96852874 -48.63923645 274.13468933 C-48.63647107 275.34684711 -48.63370569 276.55900488 -48.63085651 277.80789471 C-49.03753275 281.32455806 -49.82838194 283.22287006 -52 286 C-54.78131104 286.6526947 -54.78131104 286.6526947 -58.19628906 286.69116211 C-59.4748175 286.71726059 -60.75334595 286.74335907 -62.07061768 286.77024841 C-63.4689518 286.77344196 -64.86728809 286.7757859 -66.265625 286.77734375 C-67.70190875 286.79554796 -69.13816969 286.81564101 -70.57440186 286.83753967 C-73.58727353 286.87834917 -76.5996696 286.9027027 -79.61279297 286.91430664 C-83.46094726 286.92951393 -87.30793399 286.97524261 -91.15567398 287.0321722 C-94.12399666 287.07438175 -97.09234779 287.10524846 -100.06084442 287.13226509 C-101.47853674 287.1455525 -102.89620964 287.1611264 -104.3138504 287.1790905 C-106.30451918 287.20159636 -108.29534654 287.20838063 -110.28613281 287.21459961 C-111.41625793 287.2217247 -112.54638306 287.22884979 -113.71075439 287.2361908 C-117.43078878 286.96906636 -120.45687142 286.13479594 -124 285 C-125.00742826 280.77385264 -125.20571965 276.63688502 -125.29711914 272.31347656 C-125.31675815 271.54095708 -125.33639715 270.7684376 -125.35663128 269.97250843 C-125.42117869 267.36197398 -125.47856855 264.75134352 -125.53515625 262.140625 C-125.57879543 260.23400368 -125.6224356 258.32738238 -125.66607666 256.42076111 C-125.80883798 250.03071278 -125.93684919 243.64040465 -126.0625 237.25 C-126.08442287 236.15224369 -126.10634575 235.05448738 -126.12893295 233.92346573 C-127.00702498 189.62665821 -127.25177214 145.33048485 -127.30148584 101.02597415 C-127.30878872 94.91536531 -127.32343049 88.80480141 -127.34085083 82.69421387 C-127.36181896 75.17811474 -127.37100458 67.66210546 -127.3653115 60.14597756 C-127.3624699 56.25896982 -127.36416082 52.37210805 -127.37802887 48.48512077 C-127.39049687 44.89628893 -127.3888452 41.30775046 -127.37584293 37.71892309 C-127.37240897 35.78824541 -127.38374239 33.85755919 -127.39549351 31.92691422 C-127.38847384 30.78593655 -127.38145418 29.64495888 -127.3742218 28.46940613 C-127.37438954 27.47897403 -127.37455729 26.48854193 -127.37473011 25.46809673 C-127 23 -127 23 -125.61497116 21.18782806 C-123.43266692 19.58272063 -121.86688283 19.52970337 -119.17163086 19.3840332 C-118.1888768 19.32419754 -117.20612274 19.26436188 -116.19358826 19.20271301 C-115.12810257 19.15257553 -114.06261688 19.10243805 -112.96484375 19.05078125 C-111.85758438 18.98843796 -110.75032501 18.92609467 -109.60951233 18.86186218 C-107.25524756 18.73196181 -104.90060012 18.60884874 -102.5456543 18.49194336 C-99.00280075 18.31574758 -95.46150653 18.11985603 -91.91992188 17.91992188 C-81.76803942 17.36328564 -71.60845175 16.87776243 -61.44140625 16.73046875 C-60.7032518 16.71027176 -59.96509735 16.69007477 -59.20457458 16.66926575 C-57.18579102 16.66088867 -57.18579102 16.66088867 -54 17 C-51.73045369 20.40431947 -51.63450051 22.16524202 -51.375 26.1875 C-51.26285156 27.81751953 -51.26285156 27.81751953 -51.1484375 29.48046875 C-51.09945313 30.31191406 -51.05046875 31.14335937 -51 32 C-45.16982348 29.84291011 -41.02416842 26.88520081 -36.3125 22.875 C-34.90251815 21.70134894 -33.49104743 20.52948433 -32.078125 19.359375 C-31.38783203 18.78638672 -30.69753906 18.21339844 -29.98632812 17.62304688 C-26.31353899 14.62197729 -22.50468497 11.81568031 -18.6796875 9.01171875 C-16.91748779 7.68878457 -15.19105015 6.31657685 -13.5078125 4.89453125 C-12.74210937 4.24871094 -11.97640625 3.60289063 -11.1875 2.9375 C-10.54167969 2.36902344 -9.89585938 1.80054687 -9.23046875 1.21484375 C-5.82628274 -0.63927508 -3.86848564 -0.50991932 0 0 Z M12 82 C11.67 82.66 11.34 83.32 11 84 C11.99 83.67 12.98 83.34 14 83 C13.34 82.67 12.68 82.34 12 82 Z " fill="#280C0C" transform="translate(1538,97)"/>
</svg>
